<svg id="Layer_1" data-name="Layer 1" xmlns="http://www.w3.org/2000/svg" viewBox="0 0 173.99 97.22"><defs><style>.cls-1{fill:#fff;}</style></defs><path class="cls-1" d="M93.37,53.22h-74c1.49,16.71,13.24,26,28.46,26,10.92,0,20-4.64,24.33-13.57H91.55c-7.12,20.35-24.49,30-43.86,30C20.06,95.58.37,75.72.37,48.25S19.89.59,47.36.59C76.65.59,95.19,23.26,93.37,53.22ZM20.39,38h53c-2.81-12.41-12.24-21.18-26-21.18C33.13,16.81,23.53,25.75,20.39,38Z"/><rect class="cls-1" x="101.35" y="75.21" width="20.49" height="20.49"/><polygon class="cls-1" points="147.42 49.68 147.42 24.14 121.89 24.14 121.89 49.68 121.89 75.21 147.42 75.21 172.96 75.21 172.96 49.68 147.42 49.68"/></svg>