<svg id="Layer_1" data-name="Layer 1" xmlns="http://www.w3.org/2000/svg" viewBox="0 0 393.91 83.73"><defs><style>.cls-1{fill:#fff;}</style></defs><path class="cls-1" d="M317.92,77.84H303.58c-.17-9.23-.09-18.46,0-27.7l0-3.31a18,18,0,0,0-.21-2.61,12.13,12.13,0,0,0-.57-2.34,11,11,0,0,0-.93-2,8.14,8.14,0,0,0-6.39-4.08c-.49-.06-.95-.09-1.41-.11a5.14,5.14,0,0,0-.56,0h-.09a10.86,10.86,0,0,0-2,.2c-5.91,1-9,5.67-9,11.76,0,.14,0,.28,0,.43l0,2.11c0,.52,0,1,0,1.56V77.83H268.12c-.17-9.23-.09-18.46,0-27.69l0-3.31a18.29,18.29,0,0,0-.21-2.62,13.69,13.69,0,0,0-.57-2.33,10.76,10.76,0,0,0-.93-2.05,8.31,8.31,0,0,0-2.56-2.75,8.47,8.47,0,0,0-3.83-1.33,14.13,14.13,0,0,0-1.43-.1l-.55,0H258a12.09,12.09,0,0,0-1.89.18c-6,1-9.1,5.72-9.1,11.89V77.86H232.65V25H247V31.7s3-6.3,11.92-7.31c.38,0,.76-.08,1.14-.1a23.27,23.27,0,0,1,5.41.36,20.72,20.72,0,0,1,5.32,1.79,19.71,19.71,0,0,1,7.87,7.12c.32.51.61,1,.88,1.56,0-.06,0-.12.07-.18a16.79,16.79,0,0,1,5.92-7.38,19.55,19.55,0,0,1,10-3.27,23.34,23.34,0,0,1,5.41.36,20.85,20.85,0,0,1,5.32,1.79,19.75,19.75,0,0,1,7.86,7.12,22.71,22.71,0,0,1,2.11,4.29,24.92,24.92,0,0,1,1.19,4.39,30.51,30.51,0,0,1,.45,4.28l0,3.62C318,59.37,318.07,68.6,317.92,77.84Z"/><path class="cls-1" d="M388.06,25v52.8H373.72V70.6a26,26,0,0,1-7.32,5.47,27.76,27.76,0,0,1-11.22,2.74,30.4,30.4,0,0,1-11.6-1.93,28.46,28.46,0,0,1-9.67-6.12,26.67,26.67,0,0,1,0-38.66A28.59,28.59,0,0,1,343.59,26a30.55,30.55,0,0,1,11.59-1.93,28,28,0,0,1,11.21,2.74,26.29,26.29,0,0,1,7.33,5.48V25ZM373.72,51.43A13,13,0,0,0,372,45a14.9,14.9,0,0,0-4.64-4.87,18.45,18.45,0,0,0-6-2.54,21.66,21.66,0,0,0-6.13-.49,17.39,17.39,0,0,0-10.63,4.37A14.39,14.39,0,0,0,341.13,46a13.91,13.91,0,0,0-1.24,5.47,13.67,13.67,0,0,0,1.25,5.46,14.09,14.09,0,0,0,3.42,4.53,17.43,17.43,0,0,0,10.62,4.36,21.27,21.27,0,0,0,6.12-.5,18.05,18.05,0,0,0,6-2.52A15,15,0,0,0,372,57.9,13.15,13.15,0,0,0,373.72,51.43Z"/><path class="cls-1" d="M163,77.83V25h14.34v52.8Z"/><circle class="cls-1" cx="170.12" cy="11.39" r="6.85"/><path class="cls-1" d="M224.91,24.69a26.32,26.32,0,0,0-6.89-.62c-.73,0-1.46.1-2.21.2-9.25,1.24-13.14,7.43-13.14,7.43V25H188.32v52.8h14.35v-28c0-6.31,4.15-11.8,11.7-12.68.19,0,.38,0,.58-.06l.41,0h.06a16.51,16.51,0,0,1,2.62,0,11.82,11.82,0,0,1,4.25,1.12A10.55,10.55,0,0,1,224.91,40Z"/><polygon class="cls-1" points="118.88 19.65 111.32 19.65 103.91 19.65 103.81 19.65 97.84 19.65 97.84 25.71 103.81 25.71 103.81 77.83 118.88 77.83 118.88 47.98 152.12 47.98 152.12 34.29 118.88 34.29 118.88 19.65"/><polygon class="cls-1" points="111.32 4.54 111.32 12.1 118.88 12.1 118.88 18.23 152.12 18.23 152.12 4.54 111.32 4.54"/><path class="cls-1" d="M75.83,45.32H19c1.14,12.84,10.17,20,21.86,20,8.39,0,15.38-3.56,18.69-10.43H74.43c-5.46,15.64-18.81,23-33.68,23C19.52,77.86,4.39,62.61,4.39,41.5s15-36.6,36.1-36.6C63,4.9,77.23,22.31,75.83,45.32ZM19.77,33.62H60.45c-2.16-9.53-9.41-16.27-20-16.27C29.56,17.35,22.19,24.22,19.77,33.62Z"/><rect class="cls-1" x="81.96" y="62.12" width="15.74" height="15.74"/></svg>